# Blender 4.4.1
# www.blender.org
o Floor
v -10.000000 -12.000000 2.000000
v 10.000000 -12.000000 2.000000
v -10.000000 8.000000 2.000000
v 10.000000 8.000000 2.000000
vn -0.0000 -0.0000 1.0000
vt 0.000000 0.000000
vt 1.000000 0.000000
vt 1.000000 1.000000
vt 0.000000 1.000000
s 0
f 1/1/1 2/2/1 4/3/1 3/4/1
o Wall1
v -10.000000 8.000000 2.000000
v -10.000000 -12.000000 2.000000
v -10.000000 8.000000 0.000000
v -10.000000 -12.000000 0.000000
vn 1.0000 -0.0000 -0.0000
vt 0.000000 0.000000
vt 1.000000 0.000000
vt 1.000000 1.000000
vt 0.000000 1.000000
s 0
f 5/5/2 6/6/2 8/7/2 7/8/2
o Wall2
v 10.000000 8.000000 2.000000
v 10.000000 -12.000000 2.000000
v 10.000000 8.000000 0.000000
v 10.000000 -12.000000 0.000000
vn 1.0000 -0.0000 -0.0000
vt 0.000000 0.000000
vt 1.000000 0.000000
vt 1.000000 1.000000
vt 0.000000 1.000000
s 0
f 9/9/3 10/10/3 12/11/3 11/12/3
o Wall3
v -10.000000 -12.000000 2.000000
v 10.000000 -12.000000 2.000000
v -10.000000 -12.000000 0.000000
v 10.000000 -12.000000 0.000000
vn -0.0000 1.0000 -0.0000
vt 0.000000 0.000000
vt 1.000000 0.000000
vt 1.000000 1.000000
vt 0.000000 1.000000
s 0
f 13/13/4 14/14/4 16/15/4 15/16/4
o Wall4
v -10.000000 8.000000 2.000000
v 10.000000 8.000000 2.000000
v -10.000000 8.000000 0.000000
v 10.000000 8.000000 0.000000
vn -0.0000 1.0000 -0.0000
vt 0.000000 0.000000
vt 1.000000 0.000000
vt 1.000000 1.000000
vt 0.000000 1.000000
s 0
f 17/17/5 18/18/5 20/19/5 19/20/5
